<svg width="53" height="53" viewBox="0 0 53 53" fill="none" xmlns="http://www.w3.org/2000/svg">
<path fill-rule="evenodd" clip-rule="evenodd" d="M52 26.5C52 40.5833 40.5833 52 26.5 52C12.4167 52 1 40.5833 1 26.5C1 12.4167 12.4167 1 26.5 1C40.5833 1 52 12.4167 52 26.5ZM53 26.5C53 41.1355 41.1355 53 26.5 53C11.8645 53 0 41.1355 0 26.5C0 11.8645 11.8645 0 26.5 0C41.1355 0 53 11.8645 53 26.5ZM37.7071 25.2929L31.3431 18.9289C30.9526 18.5384 30.3195 18.5384 29.9289 18.9289C29.5384 19.3195 29.5384 19.9526 29.9289 20.3432L34.5858 25L17 25V27L34.5858 27L29.9289 31.6569C29.5384 32.0474 29.5384 32.6806 29.9289 33.0711C30.3195 33.4616 30.9526 33.4616 31.3431 33.0711L37.7071 26.7071C38.0976 26.3166 38.0976 25.6834 37.7071 25.2929Z" fill="white"/>
</svg>
