<svg width="24" height="24" viewBox="0 0 24 24" fill="none" xmlns="http://www.w3.org/2000/svg">
<path fill-rule="evenodd" clip-rule="evenodd" d="M4.66667 4.5C4.66667 3.67157 5.07707 3 5.58333 3H22.0833C22.5896 3 23 3.67157 23 4.5C23 5.32843 22.5896 6 22.0833 6H5.58333C5.07707 6 4.66667 5.32843 4.66667 4.5ZM1 12.5C1 11.6716 1.41041 11 1.91667 11H18.4167C18.9229 11 19.3333 11.6716 19.3333 12.5C19.3333 13.3284 18.9229 14 18.4167 14H1.91667C1.41041 14 1 13.3284 1 12.5ZM5.58333 19C5.07707 19 4.66667 19.6716 4.66667 20.5C4.66667 21.3284 5.07707 22 5.58333 22H22.0833C22.5896 22 23 21.3284 23 20.5C23 19.6716 22.5896 19 22.0833 19H5.58333Z" fill="white"/>
</svg>
