<svg width="96" height="41" viewBox="0 0 96 41" fill="none" xmlns="http://www.w3.org/2000/svg">
<path d="M11.8962 33.6142C14.3922 33.6142 16.6109 32.4382 18.5522 30.0861V33.0316H20.6962V15.844H18.5522V18.9837C16.8242 16.5884 14.5735 15.3908 11.8002 15.3908C9.38952 15.3908 7.32018 16.2809 5.59218 18.0612C3.86418 19.8415 3.00018 21.9778 3.00018 24.4701C3.00018 26.9625 3.85885 29.1096 5.57618 30.9115C7.29352 32.7133 9.40018 33.6142 11.8962 33.6142ZM11.9442 31.575C10.0989 31.575 8.51485 30.8791 7.19218 29.4873C5.86952 28.0954 5.20818 26.45 5.20818 24.5511C5.20818 22.6521 5.85885 21.0067 7.16018 19.6149C8.46152 18.223 10.0562 17.5271 11.9442 17.5271C13.8322 17.5271 15.4269 18.2015 16.7282 19.5501C18.0295 20.8988 18.6802 22.555 18.6802 24.5187C18.6802 26.5471 18.0189 28.2303 16.6962 29.5682C15.3735 30.9061 13.7895 31.575 11.9442 31.575ZM27.4802 33.0316V9.20844H25.3042V33.0316H27.4802ZM33.8802 33.0316V9.20844H31.7042V33.0316H33.8802ZM44.4402 33.4848C46.9362 33.4848 49.0589 32.3087 50.8082 29.9566V33.0316H53.0162V15.844H50.8082L50.8073 22.5405C50.7972 24.6793 50.7015 26.1155 50.5202 26.8492C50.3282 27.6261 49.9549 28.3813 49.4002 29.115C48.8455 29.8487 48.1735 30.4205 47.3842 30.8305C46.5949 31.2405 45.7895 31.4455 44.9682 31.4455C44.1469 31.4455 43.4482 31.3161 42.8722 31.0571C42.2962 30.7982 41.8215 30.4205 41.4482 29.9242C41.0749 29.4279 40.7975 28.8237 40.6162 28.1116C40.4349 27.3995 40.3442 26.04 40.3442 24.0332V15.844H38.1682V24.6805C38.1682 26.8816 38.3815 28.5486 38.8082 29.6815C39.2349 30.8144 39.9602 31.7315 40.9842 32.4328C42.0082 33.1341 43.1602 33.4848 44.4402 33.4848ZM61.3042 33.6142C62.7549 33.6142 63.9762 33.1179 64.9682 32.1253C65.9602 31.1326 66.4562 29.9134 66.4562 28.4676C66.4562 27.324 66.1202 26.3583 65.4482 25.5707C64.7762 24.783 63.8002 24.0494 62.5202 23.3696C61.2402 22.6899 60.3389 22.1073 59.8162 21.6217C59.2935 21.1362 59.0322 20.5536 59.0322 19.8738C59.0322 19.1941 59.2775 18.6223 59.7682 18.1583C60.2589 17.6944 60.8669 17.4624 61.5922 17.4624C62.7015 17.4624 63.8429 18.0342 65.0162 19.1779L66.4242 17.7213C64.8669 16.1676 63.3575 15.3908 61.8962 15.3908C60.4349 15.3908 59.2615 15.8224 58.3762 16.6855C57.4909 17.5487 57.0482 18.5899 57.0482 19.8091C57.0482 21.0283 57.3629 22.0209 57.9922 22.787C58.6215 23.553 59.5709 24.2598 60.8402 24.9071C62.1095 25.5545 63.0162 26.1317 63.5602 26.6388C64.1042 27.1459 64.3762 27.7933 64.3762 28.5809C64.3762 29.3686 64.0669 30.0537 63.4482 30.6363C62.8295 31.219 62.0829 31.5103 61.2082 31.5103C59.9709 31.5103 58.7869 30.8737 57.6562 29.6005L56.2802 31.1542C56.8989 31.9311 57.6509 32.5353 58.5362 32.9669C59.4215 33.3984 60.3442 33.6142 61.3042 33.6142ZM71.0802 12.8661C71.5815 12.8661 72.0082 12.688 72.3602 12.332C72.7122 11.9759 72.8882 11.5444 72.8882 11.0373C72.8882 10.5301 72.7122 10.0986 72.3602 9.74251C72.0082 9.38646 71.5815 9.20844 71.0802 9.20844C70.5789 9.20844 70.1522 9.39186 69.8002 9.7587C69.4482 10.1255 69.2722 10.5571 69.2722 11.0534C69.2722 11.5282 69.4482 11.949 69.8002 12.3158C70.1522 12.6826 70.5789 12.8661 71.0802 12.8661ZM72.1842 33.0316V15.844H69.9762V33.0316H72.1842ZM84.7602 33.6142C87.2562 33.6142 89.3522 32.7241 91.0482 30.9438C92.7442 29.1636 93.5922 27.0219 93.5922 24.5187C93.5922 22.0155 92.7335 19.8684 91.0162 18.0774C89.2989 16.2863 87.2082 15.3908 84.7442 15.3908C82.2802 15.3908 80.1895 16.2863 78.4722 18.0774C76.7549 19.8684 75.8962 22.0263 75.8962 24.5511C75.8962 27.0326 76.7495 29.1636 78.4562 30.9438C80.1629 32.7241 82.2642 33.6142 84.7602 33.6142ZM84.7122 31.5103C82.8455 31.5103 81.2829 30.8413 80.0242 29.5034C78.7655 28.1655 78.1362 26.5363 78.1362 24.6158C78.1362 22.6953 78.7869 21.0391 80.0882 19.6473C81.3895 18.2554 82.9415 17.5595 84.7442 17.5595C86.5469 17.5595 88.1042 18.2554 89.4162 19.6473C90.7282 21.0391 91.3842 22.6845 91.3842 24.5834C91.3842 26.504 90.7389 28.1386 89.4482 29.4873C88.1575 30.8359 86.5789 31.5103 84.7122 31.5103Z" fill="white"/>
<path d="M71.0186 13.8852C72.6252 13.8852 73.9277 12.5677 73.9277 10.9426C73.9277 9.31745 72.6252 8.00002 71.0186 8.00002C69.4119 8.00002 68.1095 9.31745 68.1095 10.9426C68.1095 12.5677 69.4119 13.8852 71.0186 13.8852Z" fill="#EEB5BC"/>
</svg>
